<svg width="512" height="512" viewBox="0 0 512 512" fill="none" xmlns="http://www.w3.org/2000/svg">
<path d="M421.569 416.826C421.569 419.446 419.445 421.57 416.825 421.57H276.702C274.082 421.57 271.958 419.446 271.958 416.826V389.651H384.908C387.528 389.651 389.652 387.527 389.652 384.907V271.959H416.825C419.445 271.959 421.569 274.083 421.569 276.703V416.826ZM389.652 271.959H339.782V337.029C339.782 339.65 337.658 341.774 335.038 341.774H271.958V389.651H95.1738C92.5537 389.651 90.4297 387.527 90.4297 384.907V95.1743C90.4297 92.5542 92.5537 90.4302 95.1738 90.4302H384.908C387.528 90.4302 389.652 92.5542 389.652 95.1743V271.959ZM145.045 142.293C142.424 142.293 140.3 144.417 140.3 147.037V337.029C140.3 339.65 142.424 341.774 145.045 341.774H271.958V276.703C271.958 274.083 274.082 271.959 276.702 271.959H339.782V147.037C339.782 144.417 337.658 142.293 335.038 142.293H145.045Z" fill="white"/>
</svg>
